<svg height="16" width="16" xmlns="http://www.w3.org/2000/svg"><path d="m8 0a8 8 0 1 0 0 16 8 8 0 0 0 0-16zm-3.096 1.874c-.144.198-.281.412-.411.64a8.6 8.6 0 0 0 -.531 1.121c-.33-.09-.66-.193-.987-.307a6.904 6.904 0 0 1 1.929-1.454zm-2.758 2.544c.469.176.942.33 1.419.464a12.559 12.559 0 0 0 -.36 2.465h-2.038a6.818 6.818 0 0 1 .98-2.929zm0 7.164a6.817 6.817 0 0 1 -.98-2.929h2.04c.041.858.163 1.689.359 2.465-.477.133-.95.288-1.42.464zm.829 1.09c.327-.114.656-.216.987-.307.155.397.332.772.531 1.121.13.228.267.442.41.64a6.905 6.905 0 0 1 -1.928-1.454zm4.372 1.854c-.837-.314-1.578-1.214-2.095-2.457a15.155 15.155 0 0 1 2.095-.238zm0-4.005a16.45 16.45 0 0 0 -2.508.295c-.17-.67-.283-1.4-.324-2.163h2.832zm0-3.174h-2.832c.04-.763.154-1.492.324-2.163.831.163 1.669.261 2.508.295zm0-3.178c-.7-.03-1.4-.11-2.095-.238.517-1.243 1.258-2.143 2.095-2.457zm6.507.25c.534.867.879 1.862.98 2.928h-2.04a12.56 12.56 0 0 0 -.359-2.465c.477-.133.95-.287 1.42-.464zm-.829-1.09c-.327.113-.656.215-.987.306a8.601 8.601 0 0 0 -.531-1.121 7.067 7.067 0 0 0 -.41-.64c.726.369 1.379.863 1.928 1.454zm-4.372-1.856c.837.314 1.578 1.214 2.095 2.457-.695.129-1.394.208-2.095.238v-2.694zm0 4.005a16.447 16.447 0 0 0 2.508-.295c.17.67.283 1.4.324 2.163h-2.832v-1.867zm0 3.174h2.832a11.284 11.284 0 0 1 -.324 2.163 16.447 16.447 0 0 0 -2.508-.295v-1.867zm0 5.873v-2.695c.7.03 1.4.11 2.095.238-.517 1.243-1.258 2.143-2.095 2.457zm2.443-.4c.144-.198.281-.412.411-.64.199-.349.376-.724.531-1.121.331.09.66.193.987.307a6.905 6.905 0 0 1 -1.929 1.454zm2.758-2.544c-.469-.177-.942-.33-1.419-.464.196-.776.318-1.607.36-2.465h2.039a6.818 6.818 0 0 1 -.98 2.929z" fill="#005c9c"/></svg>