<svg height="17" viewBox="0 0 17 17" width="17" xmlns="http://www.w3.org/2000/svg"><path d="m1403.625 22c-3.52199 0-6.375 2.8530093-6.375 6.375 0 1.2592593.35417 2.4201389.9838 3.4039352l-4.82061 4.8009259c-.55092.5509259-.55092 1.4560185 0 2.0069445.27547.2754629.62963.4131944 1.00348.4131944.35416 0 .72801-.1377315 1.00347-.4131944l4.80092-4.8206019c.9838.6296296 2.14468.9837963 3.40394.9837963 3.52199 0 6.375-2.8530093 6.375-6.375s-2.85301-6.375-6.375-6.375zm0 10.625c-2.34144 0-4.25-1.9085648-4.25-4.25s1.90856-4.25 4.25-4.25 4.25 1.9085648 4.25 4.25-1.90856 4.25-4.25 4.25z" fill="#005c9c" fill-rule="evenodd" transform="matrix(-1 0 0 1 1410 -22)"/></svg>